<svg width="340" height="387" viewBox="0 0 340 387" fill="none" xmlns="http://www.w3.org/2000/svg">
<g clip-path="url(#clip0_0_46)">
<path d="M316.382 41.9832C308.179 60.4257 292.624 60.1471 292.624 60.1471C292.624 60.1471 296.677 51.6362 292.053 46.1202C277.849 64.8273 258.394 61.6654 258.394 61.6654C269.34 72.8367 285.842 74.174 294.741 71.3045C304.656 68.1147 318.526 58.6148 316.368 41.9832H316.382Z" fill="black"/>
<path d="M77.6645 315.124C76.5087 318.119 73.9742 321.448 71.0358 323.287C61.4548 329.332 50.5787 321.755 49.7571 311.419C48.643 297.197 57.0403 274.242 50.4534 263.795C45.0362 255.2 35.0514 253.779 29.2304 253.752C30.8736 248.027 34.2019 243.179 38.5746 239.655L-0.0139313 249.879L31.3053 274.618C28.8126 269.868 27.6846 264.394 28.2556 258.766C34.6754 259.964 45.3287 264.004 42.2789 277.459C40.2736 286.291 38.1151 291.417 34.9261 302.56C34.9121 302.602 34.8982 302.658 34.8843 302.699C31.9877 311.754 32.489 321.811 37.9619 330.489C47.7936 346.089 68.8773 350.937 84.4604 341.103C93.5261 335.392 98.3723 325.363 101.408 315.445C103.776 307.686 106.589 299.927 110.516 292.81L93.1223 269.366C86.3543 286.416 82.3158 303.048 77.6367 315.138L77.6645 315.124Z" fill="black"/>
<path d="M122.52 139.879H294.073C296.315 122.606 288.6 104.456 273.518 94.3158V94.3576C264.438 88.2426 253.799 85.1363 243.09 83.2976C234.804 81.8768 226.031 81.6958 217.954 79.2303C211.186 77.1826 209.111 71.7641 209.946 67.641C210.949 62.6404 216.923 58.6287 221.923 60.3142C226.741 61.93 238.202 65.468 244.023 67.251C246.154 67.9057 248.465 67.1674 249.83 65.3845L253.52 60.5231L248.618 61.3031C248.618 61.3031 239.497 55.3135 235.96 52.7505L252.351 51.1208L255.052 56.804L257.42 46.7469C257.893 44.6854 256.57 42.6238 254.481 42.192L246.474 40.5623C240.444 38.6679 236.224 32.9011 229.693 28.4855C220.196 22.0919 211.576 20.2811 211.576 20.2811C215.642 26.7444 216.199 32.4136 216.199 32.4136C216.199 32.4136 205.936 33.1658 196.689 40.6877C187.54 46.538 175.48 46.4126 166.386 39.8519C166.428 39.9773 171.26 53.5306 186.258 54.5335C186.161 54.7424 186.077 54.9374 185.994 55.1464C180.897 61.3032 172.402 63.8801 164.604 61.2614C164.604 61.2614 168.503 69.7165 176.427 71.2627C178.864 71.7363 180.925 71.2905 182.624 70.4687C182.401 76.6812 183.543 83.1026 186.829 88.5769C195.979 103.802 210.503 106.128 227.549 110.78C230.181 111.198 232.659 112.73 234.205 115.182C237.227 119.96 235.278 126.632 230.236 129.139C225.376 131.563 217.787 130.031 212.69 129.056C199.753 126.59 187.749 120.169 177.917 111.491C177.889 111.463 177.847 111.435 177.819 111.393C175.772 109.499 143.353 78.4224 148.505 18.6792C148.505 18.6792 74.2109 -31.5083 2.96622 32.5668C2.96622 32.5668 39.5773 34.1269 75.7846 50.8283C65.7022 54.1156 55.8567 58.6844 46.4985 64.5766C43.1145 66.7077 39.2013 70.3015 36.0959 72.6835C56.358 72.7252 76.9961 80.9018 88.5964 99.3025C96.6037 112.006 99.3332 126.521 97.4254 140.325L122.492 139.865L122.52 139.879Z" fill="black"/>
<path d="M264.954 200.569L302.47 152.22L339.986 200.569H264.954ZM256.194 213.537H340L209.863 381.261L256.208 213.537H256.194ZM138.159 213.537L185.214 381.01L55.2718 213.537H138.159ZM141.515 196.683L104.931 149.532H184.072L141.515 196.683ZM210.643 149.532H290.34L252.392 198.438L210.643 149.532ZM153.435 200.569L197.552 151.691L239.26 200.569H153.435ZM245.527 213.537L197.608 387L148.868 213.537H245.527ZM92.788 152.206L130.304 200.569H55.2578L92.7741 152.206H92.788Z" fill="#931C04"/>
</g>
<defs>
<clipPath id="clip0_0_46">
<rect width="340" height="387" fill="white"/>
</clipPath>
</defs>
</svg>
